<svg width="24" height="24" viewBox="0 0 24 24" fill="none" xmlns="http://www.w3.org/2000/svg">
  <path d="M12.1 5C8.6 5 6 7.7 6 12C6 16.2 8.7 19 12.4 19C15 19 16.8 17.9 17.8 16.7L15.8 15.1C15.2 15.8 14.1 16.6 12.4 16.6C10 16.6 8.3 14.6 8.3 12C8.3 9.3 10 7.4 12.1 7.4C13.9 7.4 14.9 8.3 15.3 8.7L17.3 7.1C16.3 5.8 14.5 5 12.1 5Z" fill="#000"></path>
  <path d="M19 12.2C19 11.7 18.9 11.3 18.8 10.9H12.1V13.3H15.9C15.7 14.3 14.9 15.8 12.9 15.8C10.9 15.8 9.3 14.2 9.3 12C9.3 9.7 10.9 8.2 12.9 8.2C14.1 8.2 14.9 8.6 15.4 9.1L17.3 7.5C16.3 6.4 14.9 5.6 12.9 5.6C9.6 5.6 7 8.3 7 12C7 15.7 9.6 18.3 12.9 18.3C16.9 18.3 19 15.4 19 12.2Z" fill="#000"></path>
</svg>
