<svg xmlns="http://www.w3.org/2000/svg" width="22" height="22" fill="black" viewBox="0 0 24 24">
  <path d="M19.14 12.94a7.43 7.43 0 0 0 .05-1l2.11-1.65a.51.51 0 0 0 .11-.65l-2-3.46a.51.51 0 0 0-.61-.23l-2.49 1a7.28 7.28 0 0 0-1.73-1l-.38-2.65A.48.48 0 0 0 13.62 3h-3.24a.48.48 0 0 0-.49.41l-.38 2.65a7.28 7.28 0 0 0-1.73 1l-2.49-1a.51.51 0 0 0-.61.23l-2 3.46a.51.51 0 0 0 .11.65L4.81 12a7.43 7.43 0 0 0 .05 1l-2.11 1.65a.51.51 0 0 0-.11.65l2 3.46a.51.51 0 0 0 .61.23l2.49-1a7.28 7.28 0 0 0 1.73 1l.38 2.65a.48.48 0 0 0 .49.41h3.24a.48.48 0 0 0 .49-.41l.38-2.65a7.28 7.28 0 0 0 1.73-1l2.49 1a.51.51 0 0 0 .61-.23l2-3.46a.51.51 0 0 0-.11-.65zM12 15.5A3.5 3.5 0 1 1 15.5 12 3.5 3.5 0 0 1 12 15.5z"></path>
</svg>
